<svg xmlns="http://www.w3.org/2000/svg" viewBox="0 0 1377.16 23.61"><defs><style>.cls-1{fill:#1e1e1e;fill-rule:evenodd;}</style></defs><title>lineFichier 2</title><g id="Calque_2" data-name="Calque 2"><g id="Calque_1-2" data-name="Calque 1"><path class="cls-1" d="M465.37,7.63c0-.3-.34-.06-.48-.13,1.27.43,2.71-.64,3.68-.2-.41-.18-.5.3,0,.56.66.33.82-.08,1.45-.16a46.39,46.39,0,0,1,4.85.2c.45,0,.79.08,1.26.11.3,0,.51-.29.77-.28,1.51,0,3.37.46,5,.33a24.49,24.49,0,0,1,6.39-.1c4,.81,7.94.47,11.17.8.09.72-.47-.3-.38.42,1.13.73,2.6-1,3.79.49.52-.13.69,0,.86-.43-.18.51.11.42.4.55.15-.08,0-.15-.1-.14a9,9,0,0,1,2.53.51c0,.25-.16.32-.38.28.7.56,1.75.62,2.54,1.07a3.24,3.24,0,0,1-2,.86c.2.54.53,1.29,1.09,1.08.28.55-.32.18-.48.56a4.27,4.27,0,0,0,1.85.39c-.56.23-1,.49-1.36.15-.06.55-.5.58-.66,1,.09.4.31-.09.48,0-.57.81-1.22-.33-1.63.72,0-.48-.29,0-.59-.27a1.66,1.66,0,0,0,0,1.24c-3.21-.41-5.65-1.71-8.46-1.66,0-.16.17-.12.29-.14a4.49,4.49,0,0,0-2.62-.1c0-.15.19-.1.18-.28-.83-.06-1.39.27-1.84-.25-.68.7-2.24-.25-2.42.18.23-1.2,1.08-.43,1.64-.3,1,.23,2.08-.3,3.3.22.1-.13.19-.27.29-.41.52.48,1.82.9,2.43.37-.47-.09-.56-.19-.69-.68-.54-.07-.67,1-1.26.44.21-.42.45,0,.68-.29,0,.09-1-.55-.2-.27-.56-.19-1.61.38-2.42.45-.2,0,.11-.3,0-.42,0,0-.81.2-.58.29-.26-.1-.53-.47-.79-.68-.25.35-.6.65-.58,0-.27,0-.11.66-.48.56.32-.51-.54-.57-.19,0-.34-.81-1.08,0-1.65,0a.41.41,0,0,1-.1-.55,1.91,1.91,0,0,1-2.34-.24c-.21.24-.68.14-.86.43-.62-.21-1.44-.56-1.74.3-.64-.64-1.85,0-2.05-.66-.12,0-.09.28,0,.28-1.08,0-1.15.36-2.53,0,0-.29.43-.05.48-.29-.78-.07-1.21.42-2.23,0,.56.65-.34.08-.67,0-.1.41.22.24.39.27a3.74,3.74,0,0,1-2.62,0c-.2-.08-.23.26-.09.27a16.73,16.73,0,0,0-4.07.34c.34.54.76.28,1.36.26-1.5,1.11-2.06-.14-3.77.61,0-.15.19-.1.19-.28-.55.18-1-.47-1.35.43-1.23-.33-1.44.13-2.52.46.25-.37-.16-.11-.1-.55-1.48-.15-3.35.68-4.36.2-.09.75-1.34,0-1.35.85-.15-.25-.43-.86-1-.54-.1.36.61.22.3.41-.21-.22-1.17.06-1.55-.11-.2.09,0,.7-.38.56,0-.15.19-.1.19-.28-1.33-.12-2.57.68-3.77.61.06-.26.28-.1.09-.42-1.15.42-2.73.15-3.58.89-.47,0,.26-.41-.11-.69-.21.3-.86,0-1.25.43-.11-.27-.45-.19-.59-.4-3.49.67-6.58.11-9.6-.27s-7.34.52-10.76.58a20.35,20.35,0,0,1-3.39.19c-2.36-.35-4.73-1.81-7.12-2.51-3-.88-5.65-2.93-8.39-3.18a12.56,12.56,0,0,0-5.7,1.33c-2.53,1.13-5,2.44-7.8,3.43-.46.16-.9.26-1.35.44a26.89,26.89,0,0,1-6.37,1.75c-.41,0-.85,0-1.26,0a36.49,36.49,0,0,0-8.23,1.37,24.8,24.8,0,0,1-2.7,1,47.44,47.44,0,0,1-6.59.38c-1.77.08-3.61.9-5.32.77-3.55-.27-5.87-2.86-10-2.46-1.64.16-3.08,1-4.64,1.45-1.82.49-3.55-.48-5.82-.32s-5.07,1.41-7.54,1.77C329,23.68,323.83,20.08,320,15a13.54,13.54,0,0,0-7.17.39c-2,.6-3.7,1.87-5.59,2.15-3.9.58-8.09.09-12.32.06-2.8,0-5.62.2-8.25-.43a29.16,29.16,0,0,0-8.36-1.25A70.38,70.38,0,0,1,264.94,15c-.91.09-2,.26-3.1.46-2.32.41-4.93.92-6.59.38-2.95.32-6-1.62-8.38-3-2.14-.48-5.3-.68-6.83-2.52a6,6,0,0,1,.08-1.24c2.3-1.41,4.78-1.5,7.15-1.49,1.35,0,2.78,1.07,4.09,1.32,1.14.21,1.94.92,2.93,1,3.26.46,6-.75,9.77-1.25,3.48-.46,7,.29,10.48.39,4.8.14,9.55-.16,14.26.33,4.36.45,10.26.5,14.83-.78,3-.84,5.47-2.63,8.29-3.16,4.81-.91,9.81-1.25,13.32,2.41,1.14,1.19,1.74,2.92,3.16,3.67a7.55,7.55,0,0,0,4.18.63c3.3-.34,6.55-1.58,10.16-1.4,1.26.06,2.5.51,4,.49,3.09,0,6-1.62,9.68-1.25,2,.2,3.9,1.24,5.84,1.42a31.43,31.43,0,0,0,3.49,0c6.94-.1,3.52-.73,9.7-.57,1.53,0,12.2-.12,13.75-.21,6.68-.36,12.49-4.36,18.92-6.22.25,0,.53.06.68.27.31.11.12-.46.38-.42,5.31,1,11.11,3,17.12,3.45,3.95.29,7.92-1.44,11.43-.72a52.63,52.63,0,0,0,9.13.68,14.91,14.91,0,0,0,3.59-.19c0,.15-.2.09-.19.28,2.94.29,5.06-.39,7.75-.26,0,.5-.51.19-.67.42,2.37.87,5.27-1.34,7.36-.25A.52.52,0,0,0,465.37,7.63Zm22.06,2.83c-.28,0-.33,0-.2-.27-.45.2-1.13-.53-1.64.3-.21-.79-1.67.46-1.27-.53-.32.11-.57-.07-.77.42,0-.38-1,0-1.16.29.3.1.35-.14.58-.14a.88.88,0,0,0,.1.41c-.45-.08-1.15.2-1.45-.12.28,0,.49,0,.58-.28-.12,0-.11-.22-.11-.41-.68.26-2.22-.31-3.1.32.15,0,.36,0,.39.13a10.8,10.8,0,0,1-1.45-.11c.2.11.6-.13.28-.28-.38.24-.59.05-.87,0-.14.4.14.7-.28.83,0-.17.12-.19.09-.41-.88.08-1.92,0-2.31.72,3.17.4,5.75,0,8.82,0,.08.26.29.09.11.42,1.1.18.92-.15,1.65.11,0-.24-.15-.35,0-.42a4.15,4.15,0,0,1,2.33.24c.58-.37,1.8-.06,2.81,0,1.77,0,4,.54,6.51.45.1.18.1.51.3.55.33-.11.8-.05,1.15-.43.68.42,1.21,1.21,1.95.52.51.16,1.64.92,2.24.24-.11.47.41.1.48,0-.84-.08-.83-.54-1.75-.52,0-.14.07-.17.09-.28-.19,0-.19.19-.29.28a2.34,2.34,0,0,0-2.14-.52c.11-.2.1-.34-.1-.41-.32.55-1.33-.25-1.74.3,0-.21.24-.11.18-.41-2.62.48-4.63-.62-6.59,0-.18-.5-.86.19-.88-.4-.24-.09-.39.61-.58.15.2.15.46-.23.19-.28,0,.14-.17.17-.19,0,.59-.5,1.18,0,1.15-.71-1.56.55-2.27-.27-3.09.74a3.47,3.47,0,0,0,1.83-.44c-.23.19.12.51-.09.55s-.77,0-.38.28c-.26,0-.2-.22-.39,0,0-.14.08-.17.1-.28-.43-.09-.55.25-1,.16C487.39,10.82,487.33,10.89,487.43,10.46Zm-15.5.93c.61.11,2.24.14,2.41-.59C473.28,11.4,472.66,10.6,471.93,11.39Zm-2,0c.07.11.55.3.58,0C470.25,11.25,470,11,469.89,11.42Zm14.2,2.4c.29,0,.87-.32.67-.56-.2.24-.28,0-.58,0C484.15,13.45,484,13.53,484.09,13.82Zm14.18,1.3c.91-.21,2,1,3.2.22C500,15.28,499.4,14.45,498.27,15.12Zm3.4.49c.3,0,.38.38.59.55.12-.16.92-.07.58-.43C502.6,16,501.84,15.17,501.67,15.61Z"/><path class="cls-1" d="M907.41,6.78c0-.3-.34-.06-.48-.13,1.27.43,2.71-.64,3.68-.19-.41-.19-.5.29,0,.55s.82-.08,1.45-.16a46.39,46.39,0,0,1,4.85.2c.45,0,.79.08,1.26.12.3,0,.51-.29.77-.29,1.51,0,3.37.46,5,.34a24.06,24.06,0,0,1,6.39-.1c4,.8,7.94.46,11.17.79.09.72-.47-.3-.38.42,1.13.73,2.6-1,3.79.49.52-.13.69,0,.86-.43-.18.51.11.42.4.55.15-.08,0-.15-.1-.14a9.32,9.32,0,0,1,2.53.51c0,.25-.16.32-.38.29.7.55,1.75.61,2.53,1.06a3.19,3.19,0,0,1-2,.86c.2.54.53,1.29,1.09,1.08.28.55-.32.18-.48.56a4.13,4.13,0,0,0,1.85.39c-.56.24-1,.49-1.36.16-.06.54-.5.57-.66,1,.09.4.31-.09.48,0-.57.81-1.22-.33-1.63.72,0-.48-.29,0-.59-.27a1.66,1.66,0,0,0,0,1.24c-3.21-.41-5.65-1.71-8.46-1.66,0-.16.17-.12.29-.14a4.49,4.49,0,0,0-2.62-.1c0-.15.19-.09.18-.28-.83-.06-1.39.28-1.84-.24-.68.69-2.24-.26-2.42.17.23-1.2,1.08-.43,1.64-.3,1,.23,2.08-.3,3.3.23l.29-.42c.52.48,1.82.9,2.43.37-.47-.09-.56-.19-.69-.68-.54-.07-.67,1-1.26.44.21-.42.45,0,.68-.29-.05.09-1-.55-.2-.27-.56-.19-1.61.39-2.42.45-.2,0,.11-.29,0-.41s-.81.19-.58.28c-.26-.1-.53-.47-.79-.68-.25.35-.6.66-.58,0-.27,0-.11.66-.48.56.32-.51-.54-.57-.19,0-.34-.81-1.08,0-1.65,0a.41.41,0,0,1-.1-.55,1.91,1.91,0,0,1-2.34-.24c-.21.24-.68.14-.86.43-.63-.21-1.44-.56-1.74.3-.64-.64-1.85,0-2-.66-.12,0-.09.28,0,.28-1.08,0-1.15.37-2.53,0,0-.29.43,0,.48-.29-.78-.07-1.21.43-2.23,0,.56.65-.34.08-.67,0-.1.42.22.24.39.27a3.74,3.74,0,0,1-2.62,0c-.2-.07-.23.27-.09.28a15.77,15.77,0,0,0-4.07.34c.34.54.76.28,1.36.25-1.5,1.11-2.06-.14-3.77.61,0-.15.19-.1.19-.28-.55.18-1-.46-1.35.44-1.23-.34-1.44.12-2.52.45.25-.37-.16-.11-.1-.55-1.48-.15-3.35.68-4.36.2-.09.75-1.34,0-1.35.85-.15-.25-.43-.86-1-.53-.1.35.61.21.3.4-.21-.21-1.17.06-1.55-.11-.2.09,0,.7-.38.56,0-.15.19-.1.19-.28-1.33-.12-2.57.68-3.77.61.06-.26.28-.1.09-.42-1.15.42-2.73.15-3.58.89-.47,0,.26-.41-.11-.69-.21.3-.86,0-1.25.43-.11-.26-.45-.18-.59-.4-3.49.67-6.58.11-9.6-.27s-7.34.52-10.76.58a20.35,20.35,0,0,1-3.39.19c-2.36-.34-4.73-1.81-7.12-2.51-3-.88-5.65-2.93-8.39-3.17a12.43,12.43,0,0,0-5.7,1.33c-2.53,1.12-5,2.43-7.8,3.42-.46.17-.9.26-1.35.44a27,27,0,0,1-6.37,1.75c-.41,0-.85,0-1.26,0a36.49,36.49,0,0,0-8.23,1.37,24.91,24.91,0,0,1-2.7,1,49.1,49.1,0,0,1-6.59.37c-1.77.08-3.61.9-5.32.78-3.55-.27-5.87-2.87-10-2.47-1.64.16-3.08,1-4.64,1.45-1.82.5-3.55-.47-5.82-.32s-5.07,1.41-7.54,1.77c-6.49.94-11.63-2.66-15.44-7.76a13.74,13.74,0,0,0-7.17.39c-2,.6-3.7,1.87-5.59,2.16-3.9.57-8.09.08-12.32.05-2.8,0-5.62.2-8.25-.43a28.82,28.82,0,0,0-8.36-1.24,70.4,70.4,0,0,1-13.39-.9c-.91.1-2,.27-3.1.46-2.32.41-4.93.93-6.59.38-2.95.32-6-1.61-8.38-3-2.14-.48-5.3-.68-6.83-2.51a6.06,6.06,0,0,1,.08-1.25c2.3-1.41,4.78-1.5,7.15-1.49,1.35,0,2.78,1.07,4.09,1.32,1.14.21,1.94.92,2.93,1.06,3.26.45,6-.76,9.77-1.26,3.48-.46,7,.29,10.48.39,4.8.14,9.55-.16,14.26.33,4.36.46,10.26.51,14.83-.78,3-.83,5.47-2.63,8.29-3.16,4.81-.91,9.81-1.25,13.32,2.41,1.14,1.19,1.74,2.92,3.16,3.68a7.64,7.64,0,0,0,4.18.62c3.3-.34,6.55-1.57,10.16-1.4,1.26.06,2.5.51,4,.49,3.09,0,6-1.61,9.68-1.25,2,.2,3.9,1.24,5.84,1.43a34.11,34.11,0,0,0,3.49-.06c6.94-.1,12.52-.87,18.7-.7,1.53,0,3.2,0,4.75-.08,6.68-.36,12.49-4.36,18.92-6.22.25.05.53.07.68.27.31.12.12-.46.38-.42,5.31,1,11.11,3,17.12,3.46,3.95.28,7.92-1.45,11.43-.73a52.63,52.63,0,0,0,9.13.68,14.91,14.91,0,0,0,3.59-.19c0,.15-.2.1-.19.28,2.94.29,5.06-.39,7.75-.26,0,.5-.51.19-.67.42,2.37.88,5.27-1.34,7.36-.25A.52.52,0,0,0,907.41,6.78Zm-213,2.47c-.29,0-.34,0-.2-.27-.45.2-1.13-.53-1.65.3-.2-.79-1.66.47-1.26-.53-.33.12-.57-.06-.77.42,0-.38-1,0-1.16.3.3.09.35-.15.58-.15a.88.88,0,0,0,.1.41c-.46-.08-1.16.2-1.46-.11.28,0,.5,0,.58-.29-.11,0-.11-.21-.1-.41-.68.26-2.22-.31-3.1.32.15,0,.36-.05.39.14a11,11,0,0,1-1.46-.12c.2.12.6-.13.29-.28-.38.25-.6,0-.87,0-.14.4.14.7-.28.84,0-.18.12-.2.09-.42-.88.09-1.92,0-2.32.73,3.18.39,5.75,0,8.83,0,.08.26.29.09.1.41,1.11.18.92-.14,1.65.11,0-.24-.15-.35,0-.41a4,4,0,0,1,2.33.24c.58-.37,1.8-.07,2.81-.05,1.76,0,4,.54,6.5.45.1.19.1.52.3.55s.81,0,1.16-.43c.68.43,1.21,1.21,2,.52.5.16,1.64.93,2.23.24-.11.47.41.1.49,0-.84-.07-.84-.54-1.76-.52,0-.14.08-.17.1-.28-.2,0-.19.19-.29.28a2.34,2.34,0,0,0-2.14-.52c.1-.2.1-.33-.11-.41-.31.56-1.32-.25-1.74.31,0-.22.25-.12.19-.42-2.62.49-4.63-.62-6.59,0-.19-.5-.86.2-.88-.4-.25-.09-.39.62-.58.15.2.15.46-.22.19-.28,0,.14-.17.18-.2,0,.6-.5,1.19,0,1.16-.7-1.56.54-2.28-.28-3.1.73a3.35,3.35,0,0,0,1.84-.44c-.24.19.11.51-.09.56-.35,0-.78,0-.38.28-.27,0-.2-.23-.39,0,0-.14.08-.16.09-.27-.42-.09-.54.24-1,.15C694.4,9.62,694.34,9.69,694.44,9.25Zm-15.51.93c.62.11,2.24.14,2.42-.59C680.29,10.2,679.66,9.39,678.93,10.18Zm-2,0c.07.11.54.3.58,0C677.26,10,677.05,9.81,676.9,10.21Zm14.19,2.4c.3,0,.88-.32.67-.56-.2.24-.28,0-.58,0C691.16,12.25,691.05,12.32,691.09,12.61Zm14.18,1.3c.91-.21,2,1,3.21.22C707,14.07,706.4,13.25,705.27,13.91Zm3.41.5c.3,0,.38.37.59.54.12-.16.92-.07.57-.42C709.6,14.83,708.85,14,708.68,14.41Z"/><path class="cls-1" d="M370.81,13a52.53,52.53,0,0,0,9.13.69,14.83,14.83,0,0,0,3.58-.2"/><path class="cls-1" d="M688.41,8.17c0-.29-.35-.05-.49-.13,1.27.43,2.72-.64,3.68-.19-.4-.19-.49.3,0,.55.67.33.83-.08,1.45-.16,1.25-.16,3.34.19,4.86.2.44,0,.78.09,1.26.12.3,0,.51-.29.77-.29,1.5,0,3.37.47,4.95.34a24.14,24.14,0,0,1,6.4-.1c4,.8,7.93.46,11.16.79.1.72-.47-.3-.38.42,1.13.73,2.61-1,3.79.49.52-.13.7,0,.87-.42-.19.51.11.41.4.54.14-.07,0-.14-.1-.13a8.68,8.68,0,0,1,2.53.51c0,.24-.17.31-.39.28.71.56,1.76.62,2.54,1.06a3.23,3.23,0,0,1-2,.86c.2.54.53,1.3,1.08,1.09.29.54-.32.17-.48.56a4.16,4.16,0,0,0,1.85.38c-.56.24-1,.5-1.35.16-.06.55-.5.57-.67,1,.09.41.31-.08.49,0-.57.8-1.22-.34-1.64.71,0-.47-.28,0-.58-.26a1.7,1.7,0,0,0,0,1.24c-3.21-.42-5.65-1.72-8.46-1.67,0-.16.18-.11.29-.14a4.57,4.57,0,0,0-2.62-.1c0-.14.19-.09.19-.27-.84-.07-1.4.27-1.85-.25-.67.69-2.23-.26-2.42.17.24-1.2,1.08-.42,1.65-.3,1,.23,2.08-.3,3.3.23l.28-.42c.52.48,1.83.91,2.43.38-.47-.1-.56-.2-.69-.68-.54-.07-.66,1-1.25.43.21-.42.45,0,.67-.29,0,.09-1-.54-.2-.27-.56-.19-1.6.39-2.41.45-.2,0,.11-.29,0-.41,0,0-.81.19-.58.28-.26-.1-.52-.47-.78-.67-.25.34-.61.65-.58,0-.28,0-.12.65-.48.55.32-.51-.55-.56-.2,0-.33-.82-1.08,0-1.64,0a.42.42,0,0,1-.11-.55,1.89,1.89,0,0,1-2.33-.24c-.22.24-.68.15-.87.43-.62-.2-1.44-.56-1.74.3-.63-.64-1.85,0-2-.65-.13,0-.1.27,0,.27-1.07,0-1.15.37-2.52,0,0-.29.42,0,.48-.28-.78-.08-1.22.42-2.23,0,.56.65-.34.09-.68,0-.09.42.22.24.39.27a3.71,3.71,0,0,1-2.61,0c-.2-.07-.23.27-.1.28a15.7,15.7,0,0,0-4.06.34c.34.54.76.28,1.36.25-1.51,1.11-2.07-.14-3.78.61,0-.15.2-.09.19-.28-.54.18-1-.46-1.35.44-1.22-.33-1.44.12-2.51.45.24-.36-.16-.1-.11-.55-1.47-.15-3.35.68-4.36.21-.08.74-1.34,0-1.34.84-.16-.25-.43-.85-1-.53-.1.35.6.21.3.41-.22-.22-1.17.05-1.56-.12-.19.09,0,.7-.38.56,0-.15.2-.1.19-.28-1.32-.11-2.57.69-3.77.61.07-.26.29-.1.09-.41-1.14.41-2.73.14-3.57.88-.48,0,.25-.41-.11-.69-.21.3-.87,0-1.25.44-.11-.27-.45-.19-.59-.41-3.5.67-6.58.12-9.61-.26s-7.33.52-10.75.58a21.55,21.55,0,0,1-3.39.19c-2.36-.35-4.74-1.82-7.12-2.51-3-.89-5.65-2.94-8.39-3.18a12.4,12.4,0,0,0-5.7,1.33c-2.53,1.12-5,2.43-7.81,3.43-.45.16-.9.26-1.35.43a26.3,26.3,0,0,1-6.37,1.75c-.4.05-.84,0-1.26,0a36.5,36.5,0,0,0-8.22,1.37,23,23,0,0,1-2.7,1,51,51,0,0,1-6.59.38c-1.77.07-3.61.9-5.32.77-3.56-.27-5.88-2.87-10-2.47-1.64.16-3.07,1-4.63,1.46-1.83.49-3.55-.48-5.82-.33s-5.07,1.41-7.54,1.77c-6.5.95-11.63-2.65-15.44-7.75a13.63,13.63,0,0,0-7.17.38c-2,.61-3.7,1.88-5.6,2.16-3.89.57-8.08.09-12.31.05-2.8,0-5.62.2-8.25-.42a28.58,28.58,0,0,0-8.36-1.25,70.5,70.5,0,0,1-13.4-.9c-.91.1-2,.27-3.09.46-2.32.42-4.94.93-6.59.38-3,.32-6-1.61-8.39-3-2.14-.48-5.29-.67-6.83-2.51a6.74,6.74,0,0,1,.08-1.24c2.31-1.41,4.79-1.51,7.15-1.49,1.36,0,2.78,1.07,4.1,1.31,1.13.22,1.94.92,2.92,1.06,3.26.45,6-.75,9.78-1.25,3.48-.47,7,.28,10.48.38,4.8.15,9.54-.15,14.26.34,4.36.45,10.25.5,14.82-.79,3-.83,5.47-2.62,8.3-3.16,4.8-.9,9.81-1.25,13.32,2.42,1.14,1.18,1.73,2.91,3.16,3.67a7.63,7.63,0,0,0,4.18.62c3.3-.34,6.55-1.57,10.16-1.4,1.25.07,2.5.52,4,.49,3.1,0,6-1.61,9.68-1.25,2,.2,3.91,1.25,5.84,1.43a34.06,34.06,0,0,0,3.49-.06c7-.09,3.53-.73,9.71-.56,1.52,0,12.2-.13,13.75-.21,6.68-.37,12.49-4.37,18.91-6.22.26.05.53.06.68.26.32.12.13-.45.39-.42,5.3,1,11.11,3,17.12,3.46,3.94.29,7.92-1.45,11.43-.73a52.53,52.53,0,0,0,9.13.69,15.36,15.36,0,0,0,3.58-.2c0,.15-.19.1-.19.28,2.94.3,5.06-.39,7.76-.26,0,.5-.52.19-.68.43,2.37.87,5.27-1.35,7.37-.25A.52.52,0,0,0,688.41,8.17ZM710.47,11c-.29.05-.34,0-.2-.27-.45.2-1.13-.52-1.65.3-.2-.79-1.66.47-1.27-.53-.32.12-.56-.06-.76.43,0-.39-1,0-1.16.29.29.09.35-.15.58-.15a.77.77,0,0,0,.1.41c-.46-.08-1.16.2-1.46-.11.28,0,.49,0,.58-.29-.11,0-.11-.21-.1-.41-.68.27-2.22-.31-3.1.33.14,0,.36-.06.39.13A9.56,9.56,0,0,1,701,11c.2.12.6-.13.29-.28-.38.25-.6,0-.87,0-.14.39.13.69-.28.83,0-.18.12-.2.09-.42-.89.09-1.92,0-2.32.73,3.18.4,5.75,0,8.83,0,.07.26.29.09.1.41,1.1.18.92-.14,1.65.11,0-.23-.15-.35,0-.41a4.09,4.09,0,0,1,2.34.24c.58-.37,1.8-.07,2.81,0,1.76,0,4,.53,6.5.45.1.18.1.51.3.54s.81,0,1.16-.43c.68.43,1.2,1.22,2,.52.5.16,1.64.93,2.23.24-.11.48.41.1.49,0-.84-.08-.84-.54-1.76-.53,0-.14.08-.16.09-.27-.19,0-.19.18-.28.27a2.31,2.31,0,0,0-2.14-.51c.1-.2.1-.34-.11-.42-.31.56-1.32-.25-1.74.31,0-.22.25-.11.19-.42-2.62.49-4.63-.62-6.6,0-.18-.51-.85.19-.87-.4-.25-.1-.39.61-.58.14.2.16.45-.22.19-.28,0,.14-.17.18-.2,0,.6-.51,1.19,0,1.15-.71-1.55.55-2.27-.28-3.09.74a3.44,3.44,0,0,0,1.84-.45c-.24.19.11.52-.09.56-.35,0-.78,0-.38.28-.27,0-.2-.23-.39,0,0-.14.07-.17.09-.28-.42-.09-.54.24-1,.15C710.43,11.37,710.37,11.44,710.47,11ZM695,11.93c.61.12,2.24.14,2.42-.59C696.32,12,695.69,11.14,695,11.93Zm-2,0c.07.11.54.3.58,0C693.29,11.79,693.08,11.56,692.93,12Zm14.19,2.4c.3,0,.88-.31.67-.56-.2.25-.28,0-.58,0C707.18,14,707.08,14.08,707.12,14.36Zm14.18,1.3c.91-.21,2,1,3.21.23C723,15.82,722.43,15,721.3,15.66Zm3.4.5c.31,0,.39.38.59.54.13-.15.93-.07.58-.42C725.63,16.58,724.88,15.71,724.7,16.16Z"/><path class="cls-1" d="M1125.42,5.4c0-.29-.35-.05-.49-.13,1.27.43,2.72-.64,3.68-.19-.4-.19-.49.3,0,.55.67.33.83-.08,1.45-.16,1.25-.16,3.34.19,4.86.2.44,0,.78.09,1.26.12.29,0,.51-.29.77-.29,1.5,0,3.37.47,5,.34a24.14,24.14,0,0,1,6.4-.1c4,.8,7.93.46,11.16.79.1.72-.47-.3-.38.42,1.13.73,2.61-1,3.79.49.52-.13.7,0,.87-.42-.19.51.1.41.4.54.14-.07,0-.14-.1-.14a9,9,0,0,1,2.53.52c0,.24-.17.31-.39.28.71.56,1.76.62,2.54,1.06a3.23,3.23,0,0,1-2,.86c.2.54.53,1.3,1.08,1.09.28.54-.32.17-.48.56a4.16,4.16,0,0,0,1.85.38c-.56.24-1,.5-1.35.16-.06.55-.5.57-.67,1,.09.41.31-.08.49,0-.57.8-1.22-.34-1.64.71,0-.47-.28,0-.59-.27a1.79,1.79,0,0,0,0,1.25c-3.21-.42-5.65-1.72-8.46-1.67,0-.16.18-.11.29-.14a4.48,4.48,0,0,0-2.62-.1c0-.15.19-.09.19-.27-.84-.07-1.4.27-1.85-.25-.67.69-2.23-.26-2.42.17.24-1.2,1.08-.42,1.65-.3,1,.23,2.08-.3,3.3.23l.28-.42c.52.48,1.83.91,2.43.38-.47-.1-.56-.2-.69-.68-.54-.07-.66,1-1.25.43.21-.42.45,0,.67-.29,0,.09-1-.54-.2-.27-.56-.19-1.61.39-2.41.45-.2,0,.11-.29,0-.41,0,0-.81.19-.58.28-.26-.1-.52-.47-.78-.67-.25.34-.61.65-.59,0-.27,0-.11.65-.47.55.32-.51-.55-.57-.2,0-.33-.82-1.08,0-1.64,0a.42.42,0,0,1-.11-.55,1.89,1.89,0,0,1-2.33-.24c-.22.24-.68.14-.87.43-.62-.2-1.44-.56-1.74.3-.63-.64-1.85,0-2-.65-.13,0-.1.27,0,.27-1.08,0-1.15.37-2.52,0,0-.29.42,0,.48-.28-.78-.08-1.22.42-2.23,0,.56.65-.34.09-.68,0-.09.42.22.24.39.27a3.71,3.71,0,0,1-2.61,0c-.2-.07-.23.27-.1.28a15.8,15.8,0,0,0-4.07.34c.35.54.77.28,1.37.25-1.51,1.11-2.07-.14-3.78.61,0-.15.19-.09.19-.28-.54.18-1-.46-1.35.44-1.22-.33-1.44.12-2.51.45.24-.37-.16-.1-.11-.55-1.47-.15-3.35.68-4.36.21-.08.74-1.34,0-1.34.84-.16-.25-.43-.85-1-.53-.1.35.6.21.3.41-.22-.22-1.17.05-1.56-.12-.19.09,0,.7-.38.56,0-.15.19-.1.19-.28-1.33-.11-2.57.69-3.77.61.07-.26.29-.1.09-.41-1.14.41-2.73.14-3.57.88-.48,0,.25-.41-.11-.69-.21.3-.87,0-1.26.43-.1-.26-.44-.18-.58-.4-3.5.67-6.58.12-9.61-.26s-7.33.52-10.75.58a21.62,21.62,0,0,1-3.39.19c-2.36-.35-4.74-1.82-7.12-2.51-3-.89-5.65-2.94-8.39-3.18a12.4,12.4,0,0,0-5.7,1.33c-2.54,1.12-5,2.43-7.81,3.43-.45.16-.9.26-1.35.43a26.3,26.3,0,0,1-6.37,1.75c-.4,0-.84,0-1.26,0a36.5,36.5,0,0,0-8.22,1.37,23,23,0,0,1-2.7,1,51,51,0,0,1-6.59.38c-1.77.07-3.61.9-5.32.77-3.56-.27-5.88-2.87-10-2.47-1.64.16-3.07,1-4.63,1.45-1.83.5-3.56-.47-5.83-.32s-5.06,1.41-7.53,1.77c-6.5.95-11.63-2.65-15.44-7.75a13.68,13.68,0,0,0-7.18.38c-2,.61-3.69,1.88-5.59,2.16-3.89.57-8.08.09-12.31,0-2.8,0-5.62.2-8.25-.42a28.58,28.58,0,0,0-8.36-1.25,70.5,70.5,0,0,1-13.4-.9c-.91.1-2,.27-3.09.46-2.32.41-4.94.93-6.59.38-2.95.32-6-1.61-8.39-3-2.14-.48-5.29-.67-6.83-2.51a6.74,6.74,0,0,1,.08-1.24c2.31-1.42,4.79-1.51,7.15-1.49,1.36,0,2.78,1.07,4.1,1.31,1.13.22,1.93.92,2.92,1.06,3.26.45,6-.75,9.78-1.25,3.48-.47,7,.28,10.48.38,4.8.15,9.54-.16,14.26.33,4.35.46,10.25.51,14.82-.78,3-.83,5.47-2.62,8.3-3.16,4.8-.9,9.81-1.25,13.32,2.42,1.14,1.18,1.73,2.91,3.16,3.67a7.63,7.63,0,0,0,4.18.62c3.3-.34,6.55-1.57,10.16-1.4,1.25.07,2.5.52,4,.49,3.1,0,6-1.61,9.68-1.25,2,.2,3.91,1.25,5.84,1.43a34.06,34.06,0,0,0,3.49-.06c7-.09,3.53-.73,9.71-.56,1.52,0,12.2-.13,13.75-.21,6.68-.37,12.49-4.37,18.91-6.22.25,0,.53.06.68.26.32.12.13-.46.38-.42,5.31,1,11.12,3,17.13,3.46,3.94.29,7.92-1.45,11.43-.73a52.53,52.53,0,0,0,9.13.69,15.39,15.39,0,0,0,3.58-.2c0,.15-.19.1-.19.28,2.94.3,5.06-.39,7.75-.26,0,.5-.51.19-.67.43,2.37.87,5.27-1.35,7.37-.26A.51.51,0,0,0,1125.42,5.4Zm22.06,2.83c-.29,0-.34,0-.2-.27-.45.2-1.13-.52-1.65.3-.2-.79-1.66.47-1.27-.53-.32.12-.56-.06-.76.43,0-.39-1,0-1.16.29.29.09.35-.15.58-.15a.77.77,0,0,0,.1.41c-.46-.08-1.16.2-1.46-.11.28,0,.49,0,.58-.29-.11,0-.11-.21-.1-.41-.68.27-2.22-.31-3.1.33.14,0,.36-.06.39.13a9.56,9.56,0,0,1-1.46-.12c.2.12.6-.13.29-.28-.38.25-.6,0-.87,0-.14.39.13.69-.28.83,0-.18.12-.2.09-.42-.89.09-1.92,0-2.32.73,3.18.4,5.75,0,8.83,0,.07.26.29.09.1.41,1.1.18.92-.14,1.65.11,0-.23-.15-.35,0-.41a4,4,0,0,1,2.34.24c.58-.37,1.79-.07,2.81,0,1.76,0,4,.53,6.5.45.1.18.1.51.3.54s.81-.05,1.16-.43c.68.43,1.2,1.22,2,.52.5.16,1.64.93,2.23.24-.11.48.41.1.48,0-.83-.08-.83-.54-1.75-.53,0-.14.08-.16.09-.28-.19,0-.19.19-.28.28a2.31,2.31,0,0,0-2.14-.51c.1-.2.09-.34-.11-.42-.31.56-1.32-.25-1.74.31,0-.22.25-.11.19-.42-2.63.49-4.63-.62-6.6,0-.18-.5-.85.2-.88-.39-.24-.1-.38.61-.57.14.2.16.45-.22.18-.28,0,.14-.16.18-.19,0,.6-.51,1.19,0,1.15-.71-1.56.55-2.27-.28-3.09.74a3.44,3.44,0,0,0,1.84-.45c-.24.19.11.52-.09.56s-.78,0-.38.28c-.27,0-.2-.23-.39,0,0-.14.07-.17.09-.28-.42-.09-.54.24-1,.15C1147.44,8.6,1147.37,8.67,1147.48,8.23ZM1132,9.16c.61.12,2.24.14,2.42-.59C1133.33,9.18,1132.7,8.37,1132,9.16Zm-2,0c.07.11.54.3.58,0C1130.3,9,1130.09,8.79,1129.94,9.19Zm14.19,2.4c.3,0,.88-.32.67-.56-.2.25-.28,0-.58,0C1144.19,11.23,1144.09,11.31,1144.13,11.59Zm14.18,1.3c.91-.21,2,1,3.21.23C1160,13.05,1159.44,12.23,1158.31,12.89Zm3.4.5c.3,0,.39.38.59.54.13-.15.93-.07.58-.42C1162.64,13.81,1161.89,12.94,1161.71,13.39Z"/><path class="cls-1" d="M225.36,8.35c0-.3-.35-.06-.49-.13,1.27.43,2.71-.64,3.68-.2-.4-.18-.5.3,0,.55.66.34.82-.08,1.45-.16,1.25-.16,3.34.19,4.85.2.45,0,.79.09,1.27.12.29,0,.51-.29.77-.29,1.5,0,3.37.47,4.95.34a24.56,24.56,0,0,1,6.4-.1c4,.81,7.93.47,11.16.79.09.73-.47-.3-.38.42,1.13.73,2.61-1,3.79.5.52-.13.69,0,.87-.43-.19.51.1.41.39.55.15-.08,0-.15-.1-.14a8.88,8.88,0,0,1,2.53.51c0,.24-.16.32-.38.28.71.56,1.75.62,2.54,1.07a3.22,3.22,0,0,1-2,.85c.2.54.54,1.3,1.09,1.09.28.54-.32.18-.48.56a4.13,4.13,0,0,0,1.85.38c-.56.24-1,.5-1.36.16-.06.55-.49.58-.66,1,.09.4.31-.09.49,0-.58.81-1.22-.34-1.64.72,0-.48-.28,0-.59-.27a1.76,1.76,0,0,0,0,1.24c-3.21-.42-5.65-1.71-8.46-1.66,0-.16.17-.12.29-.14a4.4,4.4,0,0,0-2.62-.1c0-.15.19-.1.19-.28-.84-.07-1.4.27-1.85-.25-.68.7-2.23-.25-2.42.18.24-1.2,1.08-.43,1.64-.3,1,.23,2.09-.3,3.3.22a4.43,4.43,0,0,0,.29-.42c.52.49,1.82.91,2.43.38-.47-.09-.56-.19-.69-.68-.54-.07-.67,1-1.25.43.2-.41.44,0,.67-.28,0,.08-1-.55-.2-.27-.56-.19-1.61.38-2.42.45-.2,0,.11-.3,0-.42,0,0-.81.2-.58.29-.26-.1-.52-.47-.79-.68-.24.35-.6.65-.58,0-.27,0-.11.66-.47.56.31-.51-.55-.57-.2,0-.33-.81-1.08,0-1.65,0a.41.41,0,0,1-.1-.55,1.89,1.89,0,0,1-2.33-.24c-.22.24-.68.14-.87.42-.62-.2-1.44-.55-1.74.31-.64-.65-1.85,0-2-.66-.12,0-.09.27,0,.27-1.08,0-1.15.37-2.52,0,0-.28.42,0,.48-.28-.78-.08-1.22.42-2.23,0,.56.65-.34.08-.68,0-.09.41.22.24.39.27a3.74,3.74,0,0,1-2.62,0c-.2-.08-.22.26-.09.27a16.76,16.76,0,0,0-4.07.34c.34.54.76.28,1.36.26-1.5,1.11-2.06-.15-3.77.61,0-.15.19-.1.19-.28-.54.17-1-.47-1.35.43-1.23-.33-1.44.13-2.51.45.24-.36-.16-.1-.11-.55-1.48-.14-3.35.68-4.36.21-.08.74-1.34,0-1.35.85-.15-.25-.43-.86-1-.54-.1.36.6.21.29.41-.21-.22-1.16.05-1.55-.11-.2.09,0,.69-.38.55,0-.15.19-.09.19-.27-1.33-.12-2.57.68-3.77.61.07-.27.29-.1.09-.42-1.15.41-2.73.15-3.58.88-.47,0,.26-.41-.1-.68-.21.3-.87,0-1.26.43-.1-.27-.45-.19-.59-.41-3.49.68-6.58.12-9.6-.26s-7.34.52-10.76.58a21.48,21.48,0,0,1-3.39.19c-2.36-.35-4.73-1.82-7.12-2.51-3-.88-5.65-2.93-8.38-3.18a12.57,12.57,0,0,0-5.71,1.33c-2.53,1.12-5,2.44-7.8,3.43-.45.16-.9.26-1.35.44a26.76,26.76,0,0,1-6.37,1.75c-.41,0-.85,0-1.26,0a36.41,36.41,0,0,0-8.22,1.37,26.44,26.44,0,0,1-2.7,1,49.24,49.24,0,0,1-6.59.38c-1.77.08-3.62.9-5.32.77-3.56-.27-5.88-2.86-10-2.46-1.64.16-3.07,1-4.63,1.45-1.83.49-3.56-.48-5.83-.32s-5.07,1.41-7.53,1.77C89,24.4,83.81,20.8,80,15.7a13.54,13.54,0,0,0-7.17.39c-2,.6-3.69,1.87-5.59,2.15-3.89.58-8.09.09-12.31.05-2.8,0-5.62.21-8.25-.42a29.26,29.26,0,0,0-8.36-1.25,70.43,70.43,0,0,1-13.4-.89c-.91.09-2,.26-3.1.46-2.32.41-4.93.92-6.58.38-3,.31-6-1.62-8.39-3C4.71,13,1.55,12.85,0,11A6.74,6.74,0,0,1,.1,9.77c2.3-1.41,4.78-1.5,7.15-1.49,1.36,0,2.78,1.07,4.1,1.32,1.13.21,1.93.92,2.92,1.05,3.26.45,6-.75,9.78-1.25,3.48-.46,7,.29,10.48.39,4.8.14,9.54-.16,14.26.33,4.35.45,10.25.5,14.82-.78,3-.84,5.47-2.63,8.29-3.16,4.81-.91,9.81-1.25,13.33,2.41,1.13,1.19,1.73,2.91,3.16,3.67a7.61,7.61,0,0,0,4.18.63c3.29-.34,6.55-1.58,10.16-1.4,1.25.06,2.49.51,4,.49,3.1-.05,6-1.62,9.68-1.25,2,.2,3.91,1.24,5.84,1.42a34.07,34.07,0,0,0,3.49-.05c6.95-.1,3.52-.73,9.71-.57,1.52,0,12.2-.13,13.75-.21C155.85,11,161.66,7,168.09,5.1c.25.05.53.06.68.26.31.12.13-.45.38-.41,5.31,1,11.12,3,17.12,3.45,3.95.29,7.92-1.44,11.44-.73a51.53,51.53,0,0,0,9.12.69,14.91,14.91,0,0,0,3.59-.19c0,.15-.19.09-.19.27,2.94.3,5.06-.39,7.75-.25,0,.5-.51.19-.67.42,2.37.87,5.27-1.34,7.37-.25A.52.52,0,0,0,225.36,8.35Zm22,2.83c-.28,0-.33,0-.2-.28-.44.21-1.13-.52-1.64.31-.21-.79-1.66.46-1.27-.54-.32.12-.56-.06-.77.43,0-.39-1,0-1.16.29.3.1.35-.14.58-.14a.77.77,0,0,0,.11.41c-.46-.08-1.16.2-1.46-.12.28,0,.49,0,.58-.28-.12,0-.11-.22-.11-.41-.68.26-2.21-.31-3.09.32.14,0,.35-.06.39.13a10.82,10.82,0,0,1-1.46-.11c.2.11.6-.13.29-.28-.38.24-.6.05-.88,0-.13.39.14.7-.27.83,0-.18.12-.19.09-.41-.89.08-1.93,0-2.32.72,3.17.4,5.75,0,8.82,0,.08.26.3.09.11.41,1.1.18.92-.14,1.65.12,0-.24-.15-.35,0-.42a4.14,4.14,0,0,1,2.33.24c.59-.37,1.8-.06,2.81,0,1.77,0,4,.53,6.51.45.1.18.1.51.3.55s.81,0,1.16-.43c.67.42,1.2,1.21,1.94.52.51.16,1.64.92,2.24.24-.11.47.41.1.48,0-.83-.08-.83-.54-1.75-.52,0-.14.07-.17.09-.28-.19,0-.19.19-.29.28a2.31,2.31,0,0,0-2.14-.52c.11-.2.1-.34-.1-.41-.32.55-1.32-.25-1.74.3,0-.22.24-.11.19-.42-2.63.49-4.63-.62-6.6,0-.18-.5-.86.19-.88-.4-.24-.1-.39.61-.58.15.2.15.46-.23.19-.28,0,.14-.16.17-.19,0,.6-.51,1.19,0,1.15-.71-1.56.55-2.27-.27-3.09.74a3.53,3.53,0,0,0,1.84-.44c-.24.19.11.51-.09.55s-.78,0-.39.28c-.26,0-.2-.22-.38,0,0-.14.07-.17.09-.28-.43-.09-.54.24-1,.15C247.37,11.54,247.31,11.61,247.41,11.18Zm-15.5.93c.61.11,2.24.13,2.42-.59C233.27,12.12,232.64,11.32,231.91,12.11Zm-2,0c.07.1.55.3.59,0C230.23,12,230,11.74,229.87,12.14Zm14.2,2.4c.29,0,.87-.32.67-.57-.2.25-.28,0-.58,0C244.13,14.17,244,14.25,244.07,14.54Zm14.18,1.29c.91-.21,2,1,3.2.23C259.94,16,259.38,15.17,258.25,15.83Zm3.4.5c.3,0,.38.38.59.54.13-.15.92-.06.58-.42C262.58,16.75,261.83,15.89,261.65,16.33Z"/><path class="cls-1" d="M1333.42,3.4c0-.29-.35,0-.49-.13,1.27.43,2.72-.64,3.68-.19-.4-.19-.49.3,0,.55.67.33.83-.08,1.45-.16,1.25-.16,3.34.19,4.86.2.44,0,.78.09,1.26.12.29,0,.51-.29.77-.29,1.5,0,3.37.47,5,.34a24.14,24.14,0,0,1,6.4-.1c4,.8,7.93.46,11.16.79.1.72-.47-.3-.38.42,1.13.73,2.61-1,3.79.49.52-.13.7,0,.87-.42-.19.51.1.41.4.54.14-.07,0-.14-.1-.14a9,9,0,0,1,2.53.52c0,.24-.17.31-.39.28.71.56,1.76.62,2.54,1.06a3.23,3.23,0,0,1-2,.86c.2.54.53,1.3,1.08,1.09.28.54-.32.17-.48.56a4.16,4.16,0,0,0,1.85.38c-.56.24-1,.5-1.35.16-.06.55-.5.57-.67,1,.09.41.31-.08.49,0-.57.8-1.22-.34-1.64.71,0-.47-.28,0-.59-.27a1.79,1.79,0,0,0,0,1.25c-3.21-.42-5.65-1.72-8.46-1.67,0-.16.18-.11.29-.14a4.48,4.48,0,0,0-2.62-.1c0-.15.19-.09.19-.27-.84-.07-1.4.27-1.85-.25-.67.69-2.23-.26-2.42.17.24-1.2,1.08-.42,1.65-.3,1,.23,2.08-.3,3.3.23l.28-.42c.52.48,1.83.91,2.43.38-.47-.1-.56-.2-.69-.68-.54-.07-.66,1-1.25.43.21-.42.45,0,.67-.29,0,.09-1-.54-.2-.27-.56-.19-1.61.39-2.41.45-.2,0,.11-.29,0-.41,0,0-.81.19-.58.28-.26-.1-.52-.47-.78-.67-.25.34-.61.65-.59,0-.27,0-.11.65-.47.55.32-.51-.55-.57-.2,0-.33-.82-1.08,0-1.64,0a.42.42,0,0,1-.11-.55,1.89,1.89,0,0,1-2.33-.24c-.22.24-.68.14-.87.43-.62-.2-1.44-.56-1.74.3-.63-.64-1.85,0-2-.65-.13,0-.1.27,0,.27-1.08,0-1.15.37-2.52,0,0-.29.42,0,.48-.28-.78-.08-1.22.42-2.23,0,.56.65-.34.09-.68,0-.09.42.22.24.39.27a3.71,3.71,0,0,1-2.61,0c-.2-.07-.23.27-.1.28a15.8,15.8,0,0,0-4.07.34c.35.54.77.28,1.37.25-1.51,1.11-2.07-.14-3.78.61,0-.15.19-.09.19-.28-.54.18-1-.46-1.35.44-1.22-.33-1.44.12-2.51.45.24-.37-.16-.1-.11-.55-1.47-.15-3.35.68-4.36.21-.08.74-1.34,0-1.34.84-.16-.25-.43-.85-1-.53-.1.35.6.21.3.41-.22-.22-1.17.05-1.56-.12-.19.09,0,.7-.38.56,0-.15.19-.1.19-.28-1.33-.11-2.57.69-3.77.61.07-.26.29-.1.09-.41-1.14.41-2.73.14-3.57.88-.48,0,.25-.41-.11-.69-.21.3-.87,0-1.26.43-.1-.26-.44-.18-.58-.4-3.5.67-6.58.12-9.61-.26s-7.33.52-10.75.58a21.62,21.62,0,0,1-3.39.19c-2.36-.35-4.74-1.82-7.12-2.51-3-.89-5.65-2.94-8.39-3.18a12.4,12.4,0,0,0-5.7,1.33c-2.54,1.12-5,2.43-7.81,3.43-.45.16-.9.26-1.35.43a26.3,26.3,0,0,1-6.37,1.75c-.4.05-.84,0-1.26,0a36.5,36.5,0,0,0-8.22,1.37,23,23,0,0,1-2.7,1,51,51,0,0,1-6.59.38c-1.77.07-3.61.9-5.32.77-3.56-.27-5.88-2.87-10-2.47-1.64.16-3.07,1-4.63,1.45-1.83.5-3.56-.47-5.83-.32s-5.06,1.41-7.53,1.77c-6.5.95-11.63-2.65-15.44-7.75a13.68,13.68,0,0,0-7.18.38c-2,.61-3.69,1.88-5.59,2.16-3.89.57-8.08.09-12.31,0-2.8,0-5.62.2-8.25-.42a28.58,28.58,0,0,0-8.36-1.25,70.5,70.5,0,0,1-13.4-.9c-.91.1-2,.27-3.09.46-2.32.41-4.94.93-6.59.38-3,.32-6-1.61-8.39-3-2.14-.48-5.29-.67-6.83-2.51a6.74,6.74,0,0,1,.08-1.24c2.31-1.42,4.79-1.51,7.15-1.49,1.36,0,2.78,1.07,4.1,1.31,1.13.22,1.93.92,2.92,1.06,3.26.45,6-.75,9.78-1.25,3.48-.47,7,.28,10.48.38,4.8.15,9.54-.16,14.26.33,4.35.46,10.25.51,14.82-.78,3-.83,5.47-2.62,8.3-3.16,4.8-.9,9.81-1.25,13.32,2.42,1.14,1.18,1.73,2.91,3.16,3.67a7.63,7.63,0,0,0,4.18.62c3.3-.34,6.55-1.57,10.16-1.4,1.25.07,2.5.52,4,.49,3.1,0,6-1.61,9.68-1.25,2,.2,3.91,1.25,5.84,1.43a34.06,34.06,0,0,0,3.49-.06c7-.09,3.53-.73,9.71-.56,1.52,0,12.2-.13,13.75-.21C1263.92,6,1269.73,2,1276.15.16c.25,0,.53.06.68.26.32.12.13-.46.38-.42,5.31,1,11.12,3,17.13,3.46,3.94.29,7.92-1.45,11.43-.73a52.53,52.53,0,0,0,9.13.69,15.39,15.39,0,0,0,3.58-.2c0,.15-.19.1-.19.28,2.94.3,5.06-.39,7.75-.26,0,.5-.51.19-.67.43,2.37.87,5.27-1.35,7.37-.26A.51.51,0,0,0,1333.42,3.4Zm22.06,2.83c-.29,0-.34,0-.2-.27-.45.2-1.13-.52-1.65.3-.2-.79-1.66.47-1.27-.53-.32.12-.56-.06-.76.43,0-.39-1,0-1.16.29.29.09.35-.15.58-.15a.77.77,0,0,0,.1.41c-.46-.08-1.16.2-1.46-.11.28,0,.49,0,.58-.29-.11,0-.11-.21-.1-.41-.68.27-2.22-.31-3.1.33.14,0,.36-.06.39.13a9.56,9.56,0,0,1-1.46-.12c.2.12.6-.13.29-.28-.38.25-.6,0-.87,0-.14.39.13.69-.28.83,0-.18.12-.2.09-.42-.89.09-1.92,0-2.32.73,3.18.4,5.75,0,8.83,0,.07.26.29.09.1.41,1.1.18.92-.14,1.65.11,0-.23-.15-.35,0-.41a4,4,0,0,1,2.34.24c.58-.37,1.79-.07,2.81,0,1.76,0,4,.53,6.5.45.1.18.1.51.3.54s.81-.05,1.16-.43c.68.43,1.2,1.22,2,.52.5.16,1.64.93,2.23.24-.11.48.41.1.48,0-.83-.08-.83-.54-1.75-.53,0-.14.08-.16.09-.28-.19,0-.19.19-.28.28a2.31,2.31,0,0,0-2.14-.51c.1-.2.09-.34-.11-.42-.31.56-1.32-.25-1.74.31,0-.22.25-.11.19-.42-2.63.49-4.63-.62-6.6,0-.18-.5-.85.2-.88-.39-.24-.1-.38.61-.57.14.2.16.45-.22.18-.28,0,.14-.16.18-.19,0,.6-.51,1.19,0,1.15-.71-1.56.55-2.27-.28-3.09.74a3.44,3.44,0,0,0,1.84-.45c-.24.19.11.52-.09.56s-.78,0-.38.28c-.27,0-.2-.23-.39,0,0-.14.07-.17.09-.28-.42-.09-.54.24-1,.15C1355.44,6.6,1355.37,6.67,1355.48,6.23ZM1340,7.16c.61.12,2.24.14,2.42-.59C1341.33,7.18,1340.7,6.37,1340,7.16Zm-2,0c.07.11.54.3.58,0C1338.3,7,1338.09,6.79,1337.94,7.19Zm14.19,2.4c.3,0,.88-.32.67-.56-.2.25-.28,0-.58,0C1352.19,9.23,1352.09,9.31,1352.13,9.59Zm14.18,1.3c.91-.21,2,1,3.21.23C1368,11.05,1367.44,10.23,1366.31,10.89Zm3.4.5c.3,0,.39.38.59.54.13-.15.93-.07.58-.42C1370.64,11.81,1369.89,10.94,1369.71,11.39Z"/></g></g></svg>