<svg xmlns="http://www.w3.org/2000/svg" viewBox="0 0 35.38 35.38"><defs><style>.cls-1{fill:#fff;}</style></defs><title>logoutFichier 7</title><g id="Calque_2" data-name="Calque 2"><g id="ELEMENTS"><circle cx="17.69" cy="17.69" r="17.69"/><path class="cls-1" d="M9.34,7.76a.75.75,0,0,0-.68.75V25.74a.76.76,0,0,0,.62.75l7.86,1.4a.76.76,0,0,0,.89-.74V7.82a.77.77,0,0,0-.25-.56.75.75,0,0,0-.57-.19ZM16,18.51c-.32,0-.58-.46-.58-1s.26-1,.58-1,.59.46.59,1S16.29,18.51,16,18.51Z"/><polygon class="cls-1" points="29.45 17.08 23.3 12.52 23.3 14.88 18.52 14.88 18.52 19.25 23.3 19.25 23.3 21.61 29.45 17.08"/><path class="cls-1" d="M15.38,17.48c0,.57.26,1,.58,1s.59-.46.59-1-.26-1-.59-1S15.38,16.91,15.38,17.48Z"/><path class="cls-1" d="M22.76,14.21V8.32a.58.58,0,0,0-.17-.41.59.59,0,0,0-.41-.18H18.52V8.91h3.07v5.3Z"/><path class="cls-1" d="M18.52,26.06v1.17h3.66a.58.58,0,0,0,.41-.17.59.59,0,0,0,.17-.42V19.88H21.59v6.18Z"/></g></g></svg>