<svg xmlns="http://www.w3.org/2000/svg" viewBox="0 0 127.29 127.3"><defs><style>.cls-1{fill:#deded4;}.cls-1,.cls-2,.cls-3{fill-rule:evenodd;}.cls-3{fill:#fff;}</style></defs><title>homeIconFichier 2</title><g id="Calque_2" data-name="Calque 2"><g id="Calque_1-2" data-name="Calque 1"><path class="cls-1" d="M63.64,0A63.65,63.65,0,1,1,0,63.64,63.65,63.65,0,0,1,63.64,0Z"/><path class="cls-2" d="M63.64,0A63.65,63.65,0,1,1,0,63.64,63.65,63.65,0,0,1,63.64,0Z"/><path class="cls-3" d="M47.62,38.44H80.4L98.76,58.7H28.52ZM31.24,76.75h8.63V67.57a9.57,9.57,0,0,0-8.63,9.18Zm10.44,0h8.64a9.58,9.58,0,0,0-8.64-9.18Zm8.64,1.8H41.68v9.23h8.64Zm-10.45,0H31.22v9.23h8.65Zm-11.35-18H98.76V88.86H28.52Zm54.2,8h0a9.59,9.59,0,0,1,9.56,9.56v10.7H73.18V78.16a9.59,9.59,0,0,1,9.54-9.56Z"/></g></g></svg>