<svg xmlns="http://www.w3.org/2000/svg" viewBox="0 0 438.22 139.71"><defs><style>.cls-1{fill:#14352f;}.cls-2{fill:#265135;}.cls-3{fill:#d1525c;}.cls-4{fill:#ee9681;}.cls-5{fill:#306043;}.cls-6{fill:#2f256a;}.cls-7{fill:#e76266;}.cls-8{fill:#cc8f46;}.cls-9{fill:#e8a752;}.cls-10{fill:#f8c6a3;}.cls-11{fill:#251836;}.cls-12{fill:#efd4b4;}.cls-13{fill:#ffecd2;}.cls-14{fill:#242357;}.cls-15{fill:#bce3f6;}.cls-16{fill:#722746;}.cls-17{fill:#ecbe83;}.cls-18{fill:#2789ba;}</style></defs><title>treeFichier 1</title><g id="Calque_2" data-name="Calque 2"><g id="Objects"><path class="cls-1" d="M67.46,105.35H42.93a1.28,1.28,0,0,0-1.29,1.29h0a1.29,1.29,0,0,0,1.29,1.29H67.46a1.29,1.29,0,0,0,1.29-1.29h0A1.29,1.29,0,0,0,67.46,105.35Z"/><path class="cls-1" d="M66.87,107.14H43.59a.51.51,0,0,1-.39-.19L28.87,89.31a.5.5,0,0,1,.39-.82H52.53a.49.49,0,0,1,.39.19l14.34,17.64a.51.51,0,0,1-.39.82Zm-23-1h22L52.29,89.49h-22Z"/><path class="cls-2" d="M29.73,65.6c-3.74,1-5.36,4.37,0,5.24s24,1.67,27.28.77,3.16-4.29-.66-5S31.71,65.1,29.73,65.6Z"/><path class="cls-3" d="M24.61,44.63c-1.8,7.74-3.2,16.64-3.73,18.53s.14,3.07,2,4,21.7,1,21.7,1v-5.8L30.5,61.08s1.74-7.2,2.16-9.92C33.25,47.23,24.61,44.63,24.61,44.63Z"/><path class="cls-4" d="M44.46,67.74a27.67,27.67,0,0,0,8.34.94A5.33,5.33,0,0,0,57,66.17c.62-1.33.4-3.85-.3-4.35s-3.69,1-5.5,1-1.83-.66-1.83-.66a11,11,0,0,1,2.08-.87c1-.27.09-1.51-1.35-1.22a38.43,38.43,0,0,0-5.5,2.41Z"/><path class="cls-5" d="M14.67,84c-3.43-4-10-17.2-12-24.28s-4.3-14.35-.86-16S21.31,39,27.28,45.35,47.1,86.62,47.1,86.62s.63.89-11.93,2.09S17.51,87.05,14.67,84Z"/><path class="cls-6" d="M10.56,34.42a14.4,14.4,0,0,0-3,10.49c.51,4,4.28,11.8,15.14,12s20.1-6.44,18.84-13.39c-1-5.47-3.82-5.15-8.52-6.93s-4.85-5.25-4.85-5.25Z"/><path class="cls-7" d="M18.12,75.08S15,61.14,14.31,56.88c-1.79-11-.72-10.9,0-11.42,2.07-1.45,8.9-1.83,13.73,0s5.5,4.66,7.7,10.64c1.86,5.08,3,7.86,5.16,14.46Z"/><path class="cls-8" d="M63.71,81.68,35.05,85.94l5.88-15.37S63.46,67.74,66,68a5.73,5.73,0,0,1,4.55,2.68"/><path class="cls-9" d="M63.94,73.93c-.93-2.25-.93-3-6.33-4.29s-16.68.93-16.68.93L18.12,75.08l.14.78c.72,6.32,4.68,12,12.42,11.09l22.58-5.21"/><path class="cls-6" d="M25.41,22.84A6,6,0,0,1,30.74,25c2.07,2.7,1.58,6-1.38,7.52C25.74,34.41,25.41,22.84,25.41,22.84Z"/><path class="cls-4" d="M17.66,38.69,18,45.27s2.59,3.9,6,3.49c3.8-.47.58-4.13.58-4.13l-.13-2.37Z"/><path class="cls-10" d="M17.66,38.69a5,5,0,0,0,3,2.89c2.4,1,5.65.8,6.7.22s2.12-4,2.08-6.82c-.06-3.68-.2-7.38-2-9.75s-7.35-3.49-11.92-.66S10,38.08,17.66,38.69Z"/><path class="cls-6" d="M17.66,38.69s-3.31.14-3.74-2.79,2.19-3.52,3.19-2.75a3.78,3.78,0,0,1,1.08,2.48s1.21-.13,1.37-1.84a7.72,7.72,0,0,0-.29-3,9.37,9.37,0,0,0,8.13-5.57s-1.93-4.75-8.52-3.68a10.31,10.31,0,0,0-8.72,9.62C10,33.4,11.3,41,17.69,40.9Z"/><path class="cls-2" d="M14.5,83.76c5.9,4,15.12,4.91,38.76-2L72,80.6s-5.64,7.82-22.23,11S19.84,90.45,14.5,83.76Z"/><path class="cls-8" d="M70.56,70.69c.81,1.21,16.67,24.06,16.67,24.06l-6.84,3.87L63.71,81.68"/><path class="cls-11" d="M80.39,98.62,81.88,101S87.17,98.17,92,95.53s7.84-4.85,3.49-3.51c-4.13,1.28-8.23,2.73-8.23,2.73Z"/><path class="cls-9" d="M53.26,81.74l8.93,23.61,7.44-2.53s-4.76-26.65-5.69-28.89"/><path class="cls-11" d="M62.19,105.35l1,2.58s5.72-1.77,10.93-3.46,8.6-3.3,4.08-2.79c-4.3.48-8.6,1.14-8.6,1.14Z"/><path class="cls-1" d="M30.71,107.14H7.43a.52.52,0,0,1-.45-.29.49.49,0,0,1,.07-.53L21.38,88.68a.51.51,0,0,1,.39-.19H45.05a.5.5,0,0,1,.45.29.49.49,0,0,1-.07.53L31.1,107A.51.51,0,0,1,30.71,107.14Zm-22.23-1h22L44,89.49H22Z"/><path class="cls-1" d="M31.37,105.35H6.83a1.29,1.29,0,0,0-1.29,1.29h0a1.29,1.29,0,0,0,1.29,1.29H31.37a1.29,1.29,0,0,0,1.29-1.29h0A1.29,1.29,0,0,0,31.37,105.35Z"/><path class="cls-1" d="M21.77,89.49a.51.51,0,0,1-.36-.15L7.07,74.27a.5.5,0,0,1,0-.71.51.51,0,0,1,.71,0L22.13,88.65a.5.5,0,0,1-.36.84Z"/><path class="cls-1" d="M44.69,89.49a.53.53,0,0,1-.37-.15L30,74.27a.5.5,0,1,1,.72-.69L45.05,88.65a.5.5,0,0,1-.36.84Z"/><path class="cls-2" d="M6.18,69.59c-3.74,1-5.35,4.37,0,5.24s24.05,1.66,27.29.77,3.16-4.29-.67-5S8.17,69.09,6.18,69.59Z"/><path class="cls-3" d="M15.67,44.89c-2.34.45-5.5,1.26-7.88,6.31-3.38,7.19-6.58,14-7.11,16s.13,3.07,2,4,21.69,1,21.69,1v-5.8L10.29,65.07s3-6.43,4.3-8.87S17.49,47,15.67,44.89Z"/><path class="cls-4" d="M24.4,71.77a26.37,26.37,0,0,0,8.2.89,5.27,5.27,0,0,0,4.2-2.51c.63-1.32.4-3.84-.3-4.34s-3.69,1-5.49.94-1.83-.65-1.83-.65a10.3,10.3,0,0,1,2.08-.87c1-.27.09-1.52-1.35-1.22a38.67,38.67,0,0,0-5.51,2.41Z"/><path class="cls-6" d="M182.78,27.65c-2.57.09-6.93-1.41-8.33-1.54s-.63,3.33-.63,3.33a15,15,0,0,1-1.72-1.17c-.7-.57-1.72,4.33,2.23,6S182.78,27.65,182.78,27.65Z"/><path class="cls-1" d="M136.25,114.55h24.53a1.29,1.29,0,0,1,1.29,1.29h0a1.29,1.29,0,0,1-1.29,1.29H136.25a1.29,1.29,0,0,1-1.29-1.29h0A1.29,1.29,0,0,1,136.25,114.55Z"/><path class="cls-1" d="M160.12,116.34H136.84a.51.51,0,0,1-.39-.82l14.34-17.64a.48.48,0,0,1,.39-.19h23.27a.51.51,0,0,1,.39.82L160.5,116.15A.47.47,0,0,1,160.12,116.34Zm-22.23-1h22L173.4,98.69h-22Z"/><path class="cls-2" d="M174,74.81c3.74,1,5.35,4.36,0,5.24s-24,1.66-27.29.77-3.15-4.29.67-5S172,74.3,174,74.81Z"/><path class="cls-12" d="M179.1,53.83c1.79,7.74,3.2,16.64,3.73,18.54s-.14,3.06-2,4-21.69,1-21.69,1V71.64l14.11-1.36s-1.75-7.2-2.16-9.92C170.45,56.43,179.1,53.83,179.1,53.83Z"/><path class="cls-4" d="M159.25,76.94a27.74,27.74,0,0,1-8.35.94,5.3,5.3,0,0,1-4.2-2.51c-.63-1.33-.4-3.84.3-4.35s3.69,1,5.49,1,1.84-.65,1.84-.65a10.93,10.93,0,0,0-2.09-.88c-1-.27-.08-1.51,1.35-1.21a37.54,37.54,0,0,1,5.51,2.41Z"/><path class="cls-5" d="M189,93.17c3.44-4,10-17.2,12-24.28s4.3-14.35.86-16-19.52-4.76-25.49,1.63S156.6,95.82,156.6,95.82s-.62.89,11.94,2.09S186.19,96.26,189,93.17Z"/><path class="cls-13" d="M185.58,84.28s3.13-13.93,3.82-18.19c1.78-11,.88-12.13.13-12.66-2.07-1.45-8.69-2.2-13.52-.36s-6.85,5.76-9,11.75a104.15,104.15,0,0,0-4.19,15Z"/><path class="cls-14" d="M140,90.88l28.65,4.26-5.88-15.37S140.24,77,137.7,77.21a5.75,5.75,0,0,0-4.56,2.68"/><path class="cls-6" d="M139.76,83.13c.94-2.24.94-3,6.34-4.29s16.67.93,16.67.93l22.81,4.51-.13.78c-.72,6.32-4.68,12.06-12.42,11.09l-22.58-5.21"/><path class="cls-2" d="M189.21,93c-5.9,4-15.13,4.91-38.76-2L131.72,89.8s5.64,7.82,22.23,11S183.87,99.65,189.21,93Z"/><path class="cls-14" d="M133.14,79.89c-.8,1.21-16.66,24.07-16.66,24.07l6.84,3.86L140,90.88"/><path class="cls-11" d="M123.32,107.82l-1.5,2.34s-5.28-2.79-10.09-5.43-7.83-4.85-3.49-3.51c4.14,1.28,8.24,2.74,8.24,2.74Z"/><path class="cls-6" d="M150.45,90.94l-8.93,23.61L134.08,112s4.75-26.65,5.68-28.89"/><path class="cls-11" d="M141.52,114.55l-1,2.58s-5.72-1.76-10.93-3.46-8.6-3.3-4.08-2.79c4.3.48,8.6,1.14,8.6,1.14Z"/><path class="cls-1" d="M196.27,116.34H173a.49.49,0,0,1-.39-.19L158.27,98.51a.51.51,0,0,1-.06-.53.49.49,0,0,1,.45-.29h23.28a.51.51,0,0,1,.39.19l14.33,17.64a.49.49,0,0,1,.06.53A.48.48,0,0,1,196.27,116.34Zm-23-1h22L181.7,98.69h-22Z"/><path class="cls-1" d="M172.34,114.55h24.53a1.29,1.29,0,0,1,1.29,1.29h0a1.29,1.29,0,0,1-1.29,1.29H172.34a1.29,1.29,0,0,1-1.29-1.29h0A1.29,1.29,0,0,1,172.34,114.55Z"/><path class="cls-1" d="M181.94,98.69a.49.49,0,0,1-.36-.84l14.33-15.07a.5.5,0,0,1,.71,0,.49.49,0,0,1,0,.7L182.3,98.54A.51.51,0,0,1,181.94,98.69Z"/><path class="cls-1" d="M159,98.69a.48.48,0,0,1-.34-.13.5.5,0,0,1,0-.71L173,82.78a.5.5,0,0,1,.71,0,.49.49,0,0,1,0,.7L159.38,98.54A.51.51,0,0,1,159,98.69Z"/><path class="cls-2" d="M197.52,78.79c3.75,1,5.36,4.37,0,5.24s-24,1.67-27.28.77-3.16-4.29.66-5S195.54,78.29,197.52,78.79Z"/><path class="cls-12" d="M188.24,52.81c2.33.45,5.3,2.55,7.68,7.6,3.38,7.19,6.58,14,7.11,15.94s-.13,3.07-2,4-21.7,1-21.7,1v-5.8l14.12-1.35s-4.06-8.06-5.34-10.5S186.42,54.88,188.24,52.81Z"/><path class="cls-4" d="M179.3,81a26.62,26.62,0,0,1-8.19.9,5.33,5.33,0,0,1-4.21-2.51c-.62-1.33-.39-3.85.31-4.35s3.68,1,5.49.95,1.83-.66,1.83-.66a11,11,0,0,0-2.08-.87c-1-.27-.09-1.51,1.35-1.22a38.43,38.43,0,0,1,5.5,2.41Z"/><path class="cls-4" d="M185.71,44.88l.31,7.58a15.13,15.13,0,0,1-6.89,2.18c-2.72,0-.52-2.18-.52-2.18l0-3.26Z"/><path class="cls-10" d="M185.71,44.88a7.76,7.76,0,0,1-3.25,3.19,10.76,10.76,0,0,1-6.15,1.13A4,4,0,0,1,173.72,47a17.15,17.15,0,0,1-.71-4.82c-.3-3.67.11-7.24,1.69-9.77s7-4.28,11.81-1.82c2.05,1.05,4.51,4.69,4.47,8C190.92,43.15,187.68,47.22,185.71,44.88Z"/><path class="cls-6" d="M185.71,44.88c.46.46,3.28-.06,3.45-3.13s-2.53-3.29-3.45-2.42a3.73,3.73,0,0,0-.82,2.57s-1.5.29-1.53-1.43c0-.47.08-2.3.08-2.3-2.21-.45-1.76-4-1.76-4s-4.19,0-6.62-2.57c0,0,1.06-4.34,7.72-3.91s9.15,4.07,9.13,7.75c0,2.22.32,12.74-6,13.31Z"/><path class="cls-15" d="M406.23,114.94h-4.91v22.31a2.46,2.46,0,0,0,2.46,2.46h0a2.46,2.46,0,0,0,2.45-2.46Z"/><path class="cls-6" d="M409.23,109v4.92h26.53a2.46,2.46,0,0,0,2.46-2.46h0a2.46,2.46,0,0,0-2.46-2.46Z"/><path class="cls-13" d="M407.26,9c-11.7-5.41-44-9-76.24-9s-52.85,3.23-73,19.77S232.55,72.35,232.17,87.4s.42,26.74,1.63,29.37,57.28,5.46,98.43,5,76.93-3.27,82-6.07,4.84-40,3.76-59.11S411.79,11.13,407.26,9Z"/><path class="cls-7" d="M414.26,115.75c3.19-1.75,4.29-17,4.39-32.82-16.33,2.19-46,5.23-87.23,5.61-49.17.44-84.47-4.36-98.93-6.77-.18,2.09-.28,4-.32,5.63-.39,15.06.42,26.74,1.63,29.37s57.28,5.46,98.43,5S409.16,118.55,414.26,115.75Z"/><path class="cls-16" d="M257.66,119.84c12.79.83,29.29,1.5,45.86,1.82-.69-7.54-3.67-22.55-21.81-23C260.8,98.06,257.66,119.84,257.66,119.84Z"/><path class="cls-17" d="M325.37,121.82V70.62c0-19.39,5.82-28.15,19.69-28.15s19.7,8.76,19.7,28.15V121C351.87,121.5,338.73,121.86,325.37,121.82Z"/><path class="cls-6" d="M352,65.29a6.94,6.94,0,1,1-6.94-6.94A6.94,6.94,0,0,1,352,65.29Z"/><path class="cls-6" d="M306.11,70.26a122.35,122.35,0,0,1-36.5,0,3.83,3.83,0,0,1-3.17-3.08,59.11,59.11,0,0,1,0-21.14,3.86,3.86,0,0,1,3.53-3.2,269.59,269.59,0,0,1,35.84,0,3.86,3.86,0,0,1,3.55,3.31,71.9,71.9,0,0,1,0,20.87A3.86,3.86,0,0,1,306.11,70.26Z"/><circle class="cls-6" cx="281.07" cy="121.27" r="18.44"/><circle class="cls-15" cx="281.07" cy="121.27" r="6.73"/><path class="cls-3" d="M303.72,123.27a2,2,0,0,1-2-2,20.65,20.65,0,0,0-41.3,0,2,2,0,0,1-4,0,24.65,24.65,0,0,1,49.3,0A2,2,0,0,1,303.72,123.27Z"/><path class="cls-18" d="M306.11,70.26A3.86,3.86,0,0,0,309.33,67a71.9,71.9,0,0,0,0-20.87,3.86,3.86,0,0,0-3.55-3.31c-2.63-.17-5.25-.3-7.88-.4,1.57,8.48,5.89,16,7.34,17,0,0-1.18,5.94-1.71,11.17C304.42,70.48,305.27,70.38,306.11,70.26Z"/><path class="cls-18" d="M285.59,42.24q-7.81.06-15.61.58a3.86,3.86,0,0,0-3.53,3.2,59.11,59.11,0,0,0,0,21.14,3.83,3.83,0,0,0,3.17,3.08c1,.15,1.94.26,2.91.39a73.48,73.48,0,0,0-3.71-11.71C275,55.5,282.08,46.86,285.59,42.24Z"/></g></g></svg>